name simplified_unscaled_model\angles_bicl.mot
datacolumns 15
datarows 61
range 0.000000 0.004537
endheader
time  TH_x TH_y TH_z SC_y SC_z SC_x AC_y AC_z AC_x GH_y GH_z GH_yy EL_x PS_y
0.000000	0.000000	0.000000	0.000000	-51.015040	19.430206	31.527457	58.400287	-3.458009	4.321443	-121.843317	61.788348	162.909709	1.000000	5.000000	
0.000076	0.000000	0.000000	0.000000	-49.650753	18.847935	27.464978	58.618936	-1.098443	5.315424	-118.480993	56.272940	159.293881	1.000000	5.000000	
0.000151	0.000000	0.000000	0.000000	-53.009797	20.572499	35.006150	59.685836	-2.592150	6.998765	-109.477030	71.348542	145.400718	1.000000	5.000000	
0.000227	0.000000	0.000000	0.000000	-53.965613	21.103677	37.474235	60.128258	-2.990342	7.776488	-104.417191	75.312376	141.621446	1.000000	5.000000	
0.000302	0.000000	0.000000	0.000000	-51.173064	19.646224	34.062180	59.148390	-4.374057	4.567548	-113.332360	63.275928	146.124226	1.000000	5.000000	
0.000378	0.000000	0.000000	0.000000	-49.601910	18.829065	27.438495	58.635477	-1.100032	5.306715	-118.240332	56.090158	149.081580	1.000000	5.000000	
0.000454	0.000000	0.000000	0.000000	-48.620411	18.395192	26.398350	58.658674	-1.119853	4.896922	-116.735025	52.076577	153.117541	1.000000	5.000000	
0.000529	0.000000	0.000000	0.000000	-28.779629	10.156269	12.333615	60.954609	-3.139552	-2.679088	52.101159	14.993186	-24.353266	1.000000	5.000000	
0.000605	0.000000	0.000000	0.000000	-30.318517	10.866416	14.636506	61.313983	-3.504792	-2.132022	41.709879	15.423581	-14.181948	1.000000	5.000000	
0.000681	0.000000	0.000000	0.000000	-30.161472	10.730982	13.291046	60.874442	-2.982306	-2.113408	41.388159	13.316908	-12.763012	1.000000	5.000000	
0.000756	0.000000	0.000000	0.000000	-35.559407	12.600578	14.840158	57.994073	-3.379241	-1.679170	-110.775093	7.087731	121.917307	1.000000	5.000000	
0.000832	0.000000	0.000000	0.000000	-34.825491	12.418035	14.140329	58.883971	-2.350536	-0.933761	-71.382271	6.055363	81.724295	1.000000	5.000000	
0.000907	0.000000	0.000000	0.000000	-38.752546	14.045206	16.314366	58.501702	-1.474723	0.797079	-102.151773	16.298326	113.517186	1.000000	5.000000	
0.000983	0.000000	0.000000	0.000000	-44.326129	16.476604	23.623414	58.502263	-2.862056	2.022043	-111.876594	35.212576	122.479578	1.000000	5.000000	
0.001059	0.000000	0.000000	0.000000	-37.940935	13.659708	15.344984	58.274921	-1.597297	0.334240	-105.292277	13.701699	113.483719	1.000000	5.000000	
0.001134	0.000000	0.000000	0.000000	-33.241986	11.733930	13.634321	58.812376	-3.236117	-2.033102	-40.179534	2.957481	44.342704	1.000000	5.000000	
0.001210	0.000000	0.000000	0.000000	-35.855690	12.797916	13.738883	58.497535	-1.658345	-0.324621	-94.303715	8.084893	102.228298	1.000000	5.000000	
0.001286	0.000000	0.000000	0.000000	-42.281325	15.560834	20.956055	58.380537	-2.551924	1.359971	-110.270342	27.741990	118.617217	1.000000	5.000000	
0.001361	0.000000	0.000000	0.000000	-31.370177	10.727900	9.821665	57.430451	-3.077930	-3.018056	137.575679	4.435892	-146.343639	1.000000	5.000000	
0.001437	0.000000	0.000000	0.000000	-29.999107	10.344089	8.217164	58.790430	-1.211150	-1.913416	66.521770	4.971313	-78.974314	1.000000	5.000000	
0.001512	0.000000	0.000000	0.000000	-37.196048	13.238764	16.427996	57.559890	-3.898966	-1.647648	-120.816977	11.265159	112.051832	1.000000	5.000000	
0.001588	0.000000	0.000000	0.000000	-48.221992	18.255360	28.018416	58.843061	-2.594290	4.000071	-113.842071	50.677381	111.821202	1.000000	5.000000	
0.001664	0.000000	0.000000	0.000000	-53.610207	20.915805	38.309579	59.964473	-4.286246	6.700643	-105.716091	73.852699	114.011669	1.000000	5.000000	
0.001739	0.000000	0.000000	0.000000	-50.653806	19.477378	33.667564	59.515781	-4.062041	4.854378	-108.728086	61.216745	111.978986	1.000000	5.000000	
0.001815	0.000000	0.000000	0.000000	-44.345777	16.506962	21.931622	58.668256	-1.233018	3.109210	-110.309876	35.414612	106.419929	1.000000	5.000000	
0.001891	0.000000	0.000000	0.000000	-36.575167	13.093637	14.282156	58.412675	-1.641119	-0.102924	-99.146467	9.940651	90.194206	1.000000	5.000000	
0.001966	0.000000	0.000000	0.000000	-33.715613	11.868615	13.287406	58.373524	-3.087924	-1.959981	-87.516328	2.800350	76.415269	1.000000	5.000000	
0.002042	0.000000	0.000000	0.000000	-40.060360	14.525770	16.932311	57.963664	-1.569851	0.941245	-113.815128	19.918089	106.527123	1.000000	5.000000	
0.002117	0.000000	0.000000	0.000000	-56.224022	22.286641	44.545574	60.604628	-5.567862	8.387649	-96.552036	84.051834	120.272222	1.000000	5.000000	
0.002193	0.000000	0.000000	0.000000	-34.027134	11.851157	11.286048	57.408690	-2.318528	-1.728472	-155.756290	4.586049	145.510791	1.000000	5.000000	
0.002269	0.000000	0.000000	0.000000	-40.734801	14.700940	18.185549	57.193559	-2.968205	-0.072589	-125.970931	21.295180	119.031241	1.000000	5.000000	
0.002344	0.000000	0.000000	0.000000	-48.727697	18.572620	31.016480	59.309972	-3.983178	3.819920	-108.734168	53.112678	109.363019	1.000000	5.000000	
0.002420	0.000000	0.000000	0.000000	-39.367379	14.290716	16.727996	58.373549	-1.471532	0.955499	-105.780244	18.088648	94.836166	1.000000	5.000000	
0.002495	0.000000	0.000000	0.000000	-30.348836	10.699059	12.213514	60.136844	-2.762633	-2.234825	39.144756	9.663323	-59.043746	1.000000	5.000000	
0.002571	0.000000	0.000000	0.000000	-28.780214	10.176928	12.369996	61.095398	-3.012766	-2.550613	52.274996	15.647677	-74.388346	1.000000	5.000000	
0.002647	0.000000	0.000000	0.000000	-35.156917	12.460067	13.652383	58.230952	-2.445667	-1.146715	-102.328458	6.132848	86.051810	1.000000	5.000000	
0.002722	0.000000	0.000000	0.000000	-46.295926	17.334563	25.763398	58.445539	-2.975539	2.685612	-115.458739	42.620640	108.241102	1.000000	5.000000	
0.002798	0.000000	0.000000	0.000000	-52.253868	20.266415	36.956096	59.807586	-4.776879	5.556004	-106.460473	68.048042	110.582202	1.000000	5.000000	
0.002874	0.000000	0.000000	0.000000	-53.684359	21.047212	40.029207	60.410189	-4.960444	6.923179	-99.729769	73.738036	108.786240	1.000000	5.000000	
0.002949	0.000000	0.000000	0.000000	-40.162326	14.646170	17.549455	58.445039	-1.414460	1.309235	-106.007769	20.672269	98.193734	1.000000	5.000000	
0.003025	0.000000	0.000000	0.000000	-30.412697	10.614106	11.105248	59.393082	-2.627493	-2.419118	44.064777	6.418809	-61.178896	1.000000	5.000000	
0.003100	0.000000	0.000000	0.000000	-51.636072	19.885118	35.099160	59.295024	-4.573418	4.822077	-112.029545	65.340436	109.153440	1.000000	5.000000	
0.003176	0.000000	0.000000	0.000000	-46.677489	17.605552	28.437605	58.998199	-4.131615	2.588523	-109.209934	44.681503	104.397214	1.000000	5.000000	
0.003252	0.000000	0.000000	0.000000	-30.019781	10.457530	11.155740	59.453776	-2.896347	-2.688145	48.018651	7.138238	-67.117342	1.000000	5.000000	
0.003327	0.000000	0.000000	0.000000	-37.243708	13.289572	15.373388	57.798216	-2.735693	-0.809224	-115.693770	11.459752	100.318418	1.000000	5.000000	
0.003403	0.000000	0.000000	0.000000	-34.765486	12.128155	12.809489	57.127749	-3.319606	-2.227894	-153.423747	6.195997	109.419609	1.000000	5.000000	
0.003479	0.000000	0.000000	0.000000	-35.338161	12.481379	14.169056	57.841905	-3.175908	-1.689243	-117.853013	6.550698	75.822705	1.000000	5.000000	
0.003554	0.000000	0.000000	0.000000	-43.239106	15.857764	21.501695	57.621591	-3.112097	0.924156	-121.265158	30.218058	79.667429	1.000000	5.000000	
0.003630	0.000000	0.000000	0.000000	-49.793054	19.018428	32.234252	59.122496	-4.227169	3.992499	-112.115868	57.421865	73.763077	1.000000	5.000000	
0.003705	0.000000	0.000000	0.000000	-52.766795	20.614128	38.319336	60.386519	-4.556854	6.594497	-99.849752	69.892093	68.743308	1.000000	5.000000	
0.003781	0.000000	0.000000	0.000000	-51.366736	19.958694	35.075153	60.369493	-3.343989	6.469144	-99.617302	64.044505	69.634530	1.000000	5.000000	
0.003857	0.000000	0.000000	0.000000	-46.768251	17.748353	27.218828	59.650477	-2.215126	4.235447	-102.435610	45.356049	70.413530	1.000000	5.000000	
0.003932	0.000000	0.000000	0.000000	-38.585461	13.999697	16.368554	58.671135	-1.452119	0.832133	-98.391954	15.932100	60.046596	1.000000	5.000000	
0.004008	0.000000	0.000000	0.000000	-31.082039	11.055222	13.450250	60.425181	-2.914474	-1.932291	30.924138	10.388432	-76.944469	1.000000	5.000000	
0.004083	0.000000	0.000000	0.000000	-29.910945	10.716136	14.236425	61.476451	-3.299932	-2.102717	45.520910	16.555671	-94.173867	1.000000	5.000000	
0.004159	0.000000	0.000000	0.000000	-31.108774	10.882004	11.627698	59.203817	-2.751751	-2.322766	35.785189	4.911705	-86.190091	1.000000	5.000000	
0.004235	0.000000	0.000000	0.000000	-42.084296	15.321851	18.304494	57.453168	-1.658640	1.334692	-123.048724	25.966238	68.483264	1.000000	5.000000	
0.004310	0.000000	0.000000	0.000000	-49.309291	18.896404	30.497225	59.706524	-2.484228	5.278645	-105.518327	55.624359	57.753324	1.000000	5.000000	
0.004386	0.000000	0.000000	0.000000	-51.937805	20.327896	37.380122	60.891755	-3.917358	7.056378	-93.275946	65.867341	50.510952	1.000000	5.000000	
0.004462	0.000000	0.000000	0.000000	-50.361542	19.591226	34.185416	60.855761	-2.932027	6.677735	-92.751622	59.497004	50.041302	1.000000	5.000000	
0.004537	0.000000	0.000000	0.000000	-45.291939	17.071019	26.794307	59.486707	-3.409431	2.796489	-101.316262	39.595173	53.889188	1.000000	5.000000	
